<svg width="35" height="36" viewBox="0 0 35 36" fill="none" xmlns="http://www.w3.org/2000/svg">
<path fill-rule="evenodd" clip-rule="evenodd" d="M17.5 26.8838C22.3325 26.8838 26.25 22.9663 26.25 18.1338C26.25 13.3013 22.3325 9.38378 17.5 9.38378C12.6675 9.38378 8.74998 13.3013 8.74998 18.1338C8.74998 22.9663 12.6675 26.8838 17.5 26.8838ZM17.5 23.9671C20.7216 23.9671 23.3333 21.3554 23.3333 18.1338C23.3333 14.9121 20.7216 12.3005 17.5 12.3005C14.2783 12.3005 11.6666 14.9121 11.6666 18.1338C11.6666 21.3554 14.2783 23.9671 17.5 23.9671Z" fill="white" fill-opacity="0.7"/>
<path d="M26.25 7.92545C25.4446 7.92545 24.7916 8.57837 24.7916 9.38378C24.7916 10.1892 25.4446 10.8421 26.25 10.8421C27.0554 10.8421 27.7083 10.1892 27.7083 9.38378C27.7083 8.57837 27.0554 7.92545 26.25 7.92545Z" fill="white" fill-opacity="0.7"/>
<path fill-rule="evenodd" clip-rule="evenodd" d="M2.41201 6.8697C1.45831 8.74143 1.45831 11.1917 1.45831 16.0921V20.1754C1.45831 25.0759 1.45831 27.5261 2.41201 29.3979C3.2509 31.0443 4.58948 32.3829 6.2359 33.2218C8.10762 34.1754 10.5579 34.1754 15.4583 34.1754H19.5416C24.4421 34.1754 26.8923 34.1754 28.7641 33.2218C30.4105 32.3829 31.7491 31.0443 32.588 29.3979C33.5416 27.5261 33.5416 25.0759 33.5416 20.1754V16.0921C33.5416 11.1917 33.5416 8.74143 32.588 6.8697C31.7491 5.22328 30.4105 3.8847 28.7641 3.04581C26.8923 2.09212 24.4421 2.09212 19.5416 2.09212H15.4583C10.5579 2.09212 8.10762 2.09212 6.2359 3.04581C4.58948 3.8847 3.2509 5.22328 2.41201 6.8697ZM19.5416 5.00878H15.4583C12.96 5.00878 11.2616 5.01105 9.94884 5.11831C8.67013 5.22278 8.0162 5.41215 7.56003 5.64458C6.46242 6.20384 5.57004 7.09623 5.01077 8.19384C4.77835 8.65001 4.58898 9.30393 4.4845 10.5826C4.37725 11.8954 4.37498 13.5938 4.37498 16.0921V20.1754C4.37498 22.6738 4.37725 24.3722 4.4845 25.6849C4.58898 26.9636 4.77835 27.6176 5.01077 28.0737C5.57004 29.1713 6.46242 30.0637 7.56003 30.623C8.0162 30.8554 8.67013 31.0448 9.94884 31.1493C11.2616 31.2565 12.96 31.2588 15.4583 31.2588H19.5416C22.04 31.2588 23.7384 31.2565 25.0511 31.1493C26.3298 31.0448 26.9838 30.8554 27.4399 30.623C28.5375 30.0637 29.4299 29.1713 29.9892 28.0737C30.2216 27.6176 30.411 26.9636 30.5155 25.6849C30.6227 24.3722 30.625 22.6738 30.625 20.1754V16.0921C30.625 13.5938 30.6227 11.8954 30.5155 10.5826C30.411 9.30393 30.2216 8.65 29.9892 8.19384C29.4299 7.09623 28.5375 6.20384 27.4399 5.64458C26.9838 5.41215 26.3298 5.22278 25.0511 5.11831C23.7384 5.01105 22.04 5.00878 19.5416 5.00878Z" fill="white" fill-opacity="0.7"/>
</svg>
