<svg width="236" height="68" viewBox="0 0 236 68" fill="none" xmlns="http://www.w3.org/2000/svg">
<path fill-rule="evenodd" clip-rule="evenodd" d="M173.609 0.749871C167.895 2.49376 162.544 7.7505 160.21 13.9117C159.186 16.6135 159.003 18.0817 159.189 22.0918C159.473 28.2222 161.127 31.8541 165.744 36.486L169.01 39.7625L177.231 31.616C185.016 23.9023 185.496 23.5281 186.281 24.5749C186.737 25.1832 187.111 25.8433 187.111 26.0426C187.111 26.2414 183.634 29.8345 179.386 34.0268C175.137 38.2191 171.661 41.9877 171.661 42.4017C171.661 42.8152 172.054 43.3038 172.534 43.4872C173.13 43.715 175.815 41.3623 181.006 36.0657C185.187 31.7999 189.011 28.3105 189.505 28.3105C189.999 28.3105 190.721 28.6909 191.109 29.1556C191.699 29.8641 190.505 31.3153 183.743 38.108C176.551 45.3308 175.765 46.3081 176.533 47.073C177.302 47.8379 178.26 47.0724 185.325 40.0541C192.55 32.8769 193.363 32.2345 194.474 32.8268C195.145 33.1839 195.694 33.656 195.694 33.8764C195.694 34.0963 192.026 37.9326 187.544 42.4017L179.396 50.5272L188.394 59.4836C196.697 67.7474 197.464 68.3682 198.321 67.515C199.178 66.6619 198.622 65.9636 191.124 58.4829L182.998 50.3762L184.2 49.1791L185.403 47.9825L193.595 56.1222C200.882 63.3626 201.873 64.1599 202.56 63.3364C203.24 62.5214 202.361 61.4427 195.196 54.2986L187.061 46.1868L188.255 45.1115C189.443 44.0408 189.485 44.0727 197.621 52.156C204.89 59.3782 205.879 60.1733 206.565 59.3497C207.245 58.5347 206.367 57.456 199.202 50.3119L191.066 42.2001L192.26 41.1248C193.448 40.0547 193.49 40.086 201.305 47.8487C205.622 52.1384 209.424 55.6478 209.752 55.6478C210.08 55.6478 215.258 50.714 221.258 44.6844C233.129 32.7545 234.708 30.5174 235.724 24.1859C237.213 14.9129 232.59 6.17064 223.875 1.7773C220.893 0.274316 220.047 0.118834 214.862 0.118834C209.693 0.118834 208.81 0.280011 205.725 1.78755C203.848 2.70563 201.209 4.46775 199.86 5.70419L197.41 7.95269L194.792 5.55099C190.842 1.92651 186.616 0.220211 181.102 0.0231541C178.14 -0.0822085 175.496 0.174078 173.609 0.749871ZM175.066 2.85371C169.894 4.30999 165.209 8.37755 162.882 13.4333C160.998 17.5247 161.142 24.7213 163.19 28.88C164.039 30.6028 165.655 33.0239 166.781 34.2597L168.83 36.5077L170.047 35.2957L171.265 34.0832L168.685 31.227C165.641 27.8577 164.554 24.6045 164.896 19.8917C165.303 14.3035 168.324 9.66868 173.113 7.28805C176.716 5.49689 180.999 5.17055 185.145 6.36997C188.351 7.29716 189.095 7.90656 199.165 17.842L209.8 28.3338L210.884 27.1418C211.965 25.952 211.94 25.9213 201.368 15.4818C189.613 3.8743 187.841 2.70905 181.389 2.33601C179.343 2.21754 176.498 2.45105 175.066 2.85371ZM210.285 2.6464C207.689 3.27857 204.271 5.18934 201.531 7.54035C199.185 9.55477 199.117 9.7 200.046 10.7229C201.386 12.1957 202.077 12.0761 204.027 10.0332C210.673 3.07013 222.702 4.5435 228.05 12.9759C230.842 17.3772 230.715 25.1923 227.783 29.4666C227.037 30.5533 222.156 35.7337 216.937 40.9779L207.446 50.5124L208.61 51.6713L209.774 52.8298L220.071 42.4211C231.946 30.4177 232.925 28.8874 233.333 21.6971C233.567 17.5572 233.429 16.7115 232.007 13.558C228.261 5.24914 218.904 0.548828 210.285 2.6464ZM176.05 8.70219C174.33 9.24665 172.381 10.4797 170.889 11.9673C165.804 17.0349 165.855 24.7595 171.008 30.1671C173.048 32.3068 173.049 32.3074 174.191 31.1712C175.333 30.035 175.332 30.0333 173.532 28.1755C170.136 24.6706 169.537 20.1075 171.939 16.028C173.533 13.3211 177.12 11.2246 180.157 11.2246C183.829 11.2246 186.125 12.8808 196.007 22.6585C205.764 32.3131 205.786 32.3302 206.858 31.1507C207.927 29.9758 207.875 29.9114 198.241 20.3097C192.036 14.1258 187.664 10.2365 186.089 9.49953C182.727 7.92649 179.349 7.65824 176.05 8.70219ZM210.982 8.62587C208.295 9.57983 205.218 11.6444 204.299 13.1092C203.732 14.0119 203.774 14.3855 204.523 15.1316C205.514 16.1174 205.485 16.1294 209.1 13.2744C213.273 9.97793 219.962 11.1546 223.012 15.7228C224.449 17.8756 224.8 22.8544 223.67 25.0733C223.322 25.7573 218.625 30.7389 213.232 36.1432C204.841 44.5522 203.517 46.1133 204.056 46.9642C204.402 47.5115 205.044 48.0252 205.482 48.1055C206.783 48.3447 225.219 29.5082 226.557 26.5745C229.906 19.2259 226.176 10.9592 218.486 8.68624C214.914 7.63033 213.811 7.62122 210.982 8.62587ZM177.054 14.582C174.651 15.6681 172.805 18.3995 172.805 20.8684C172.805 22.6966 174.2 25.5881 175.782 27.0381C177.182 28.3207 177.195 28.3218 178.214 27.2016C179.203 26.1132 179.187 26.0158 177.738 24.3015C176.913 23.3259 176.239 21.827 176.239 20.9704C176.239 18.8386 178.164 16.9199 180.302 16.9199C181.786 16.9199 183.408 18.3158 191.71 26.7414L201.389 36.5629L202.678 35.2798L203.968 33.9966L194.824 24.8751C186.427 16.499 182.542 13.4794 180.206 13.5153C179.755 13.5221 178.336 14.0022 177.054 14.582ZM212.001 14.2875C211.057 14.7158 209.663 15.737 208.903 16.5565C207.566 17.9997 207.555 18.0834 208.553 19.1815C209.579 20.3092 209.598 20.3057 211.528 18.6182C214.845 15.7199 218.582 16.8715 218.582 20.7904C218.582 22.7456 217.918 23.5492 208.829 32.607L199.076 42.3265L200.281 43.4115C201.485 44.4964 201.495 44.4885 211.75 34.2364C221.823 24.1671 222.015 23.9308 222.015 21.5587C222.015 17.2815 219.735 14.5091 215.661 13.8319C214.54 13.6457 212.992 13.8382 212.001 14.2875ZM0.711249 19.2874C0.319862 19.677 0 20.1992 0 20.4476C0 20.6964 2.57492 24.76 5.72204 29.4774L11.4441 38.0545V44.7442C11.4441 51.8297 11.7656 52.8001 14.1134 52.8001C16.1144 52.8001 16.5933 51.1326 16.5985 44.1524L16.6031 37.7077L22.3754 29.0058C25.7612 23.9006 28.0139 19.9572 27.8245 19.4663C27.6466 19.0044 26.7814 18.6285 25.8974 18.6285C24.4594 18.6285 23.7922 19.4224 19.4423 26.3137C16.7741 30.5407 14.3829 33.9317 14.1283 33.8491C13.8736 33.766 11.5402 30.3721 8.9424 26.3057C5.22078 20.48 3.9236 18.8779 2.82096 18.7464C2.05192 18.6547 1.10264 18.8979 0.711249 19.2874ZM33.7875 19.7169C32.9807 21.2164 32.9744 50.2003 33.78 51.6987C34.4421 52.93 36.5999 53.1629 37.651 52.1167C38.1133 51.6565 38.3376 49.0538 38.3376 44.1433V36.8534H45.7563C52.5002 36.8534 53.2287 36.7531 53.766 35.7536C54.2123 34.9238 54.1367 34.4352 53.4593 33.7603C52.7394 33.0444 51.1476 32.8667 45.4496 32.8667H38.3376V27.4721V22.0775L46.2054 21.9192L54.0732 21.7609V20.3371V18.9132L44.2302 18.7578C34.9576 18.6108 34.3522 18.6666 33.7875 19.7169ZM179.12 20.0272C178.411 20.8781 178.628 21.5821 180.138 23.3316C180.944 24.2668 181.072 24.2702 182.053 23.3857C183.376 22.1943 183.368 21.9716 181.938 20.4447C180.568 18.9799 180.057 18.9047 179.12 20.0272ZM212.865 20.6161C211.563 21.9961 211.555 22.0644 212.576 23.1876L213.625 24.3414L214.959 23.0941C216.5 21.6532 216.695 20.0426 215.388 19.5437C214.194 19.0875 214.383 19.0072 212.865 20.6161ZM136.299 21.0205C135.911 21.4061 135.612 23.253 135.612 25.2578V28.8111L133.466 28.9882C131.761 29.1283 131.321 29.3988 131.321 30.3038C131.321 31.1723 131.762 31.485 133.18 31.6211L135.04 31.7999L135.054 39.025C135.07 47.6078 135.611 50.366 137.617 52.0882C140.368 54.4501 148.018 53.3321 145.963 50.8683C145.515 50.3307 144.331 49.9525 143.096 49.9525C141.938 49.9525 140.682 49.645 140.304 49.2691C139.832 48.7992 139.618 45.9601 139.618 40.188V31.7903L142.336 31.6166C144.614 31.4708 145.054 31.2589 145.054 30.3038C145.054 29.3487 144.614 29.1368 142.336 28.991L139.618 28.8173V25.2606C139.618 21.8503 139.002 20.3371 137.615 20.3371C137.269 20.3371 136.677 20.6446 136.299 21.0205ZM67.0909 29.4432C66.0683 30.064 65.2055 30.8961 65.174 31.2919C65.1425 31.6883 64.9382 31.3717 64.7191 30.5886C64.4095 29.4803 63.9466 29.1647 62.6305 29.1647H60.9397V40.8401V52.5154H62.6563H64.3729L64.659 44.2572C64.8438 38.9162 65.214 35.5292 65.7061 34.6692C66.5118 33.2625 69.5479 31.7276 71.5249 31.7276C72.9811 31.7276 73.6146 30.2981 72.6636 29.1573C71.6828 27.9813 69.2984 28.1037 67.0909 29.4432ZM83.6624 28.9534C80.9016 29.7457 77.5902 33.3155 76.7085 36.4501C74.1444 45.566 79.4013 53.3697 88.1062 53.3697C94.6848 53.3697 99.3511 48.9148 99.9783 42.0355C100.846 32.5119 93.0477 26.2596 83.6624 28.9534ZM113.508 29.1306C112.523 29.5577 111.542 30.1882 111.328 30.5322C110.701 31.5431 109.449 31.2515 109.125 30.019C108.793 28.7547 107.039 28.5012 105.972 29.5634C105.247 30.285 104.946 50.1177 105.633 51.8992C106.119 53.1612 108.557 53.0268 109.271 51.6987C109.596 51.0927 109.863 47.352 109.863 43.3859C109.863 33.7381 111.057 31.7276 116.784 31.7276C118.525 31.7276 119.409 32.0887 120.476 33.2346C121.83 34.688 121.879 35.0315 121.879 42.8699C121.879 47.3407 122.036 51.4037 122.227 51.8992C122.418 52.3946 123.159 52.8001 123.873 52.8001C126.31 52.8001 126.577 51.7163 126.357 42.7115C126.117 32.8314 125.527 31.1473 121.699 29.417C118.89 28.1481 116.009 28.0473 113.508 29.1306ZM83.8358 32.9624C81.7152 34.6225 80.6807 37.3022 80.6807 41.1351C80.6807 46.6988 83.4067 49.9525 88.069 49.9525C91.3466 49.9525 93.058 48.8271 94.4628 45.7477C96.5868 41.0929 95.0951 34.405 91.5222 32.5665C89.1138 31.3267 85.7001 31.5027 83.8358 32.9624ZM196.064 37.3306C195.173 38.3102 195.187 38.4441 196.281 39.4305C197.422 40.4579 197.481 40.4534 198.694 39.2454C199.924 38.022 199.925 37.9976 198.817 37.1638C197.368 36.0725 197.198 36.0828 196.064 37.3306Z" fill="white"/>
</svg>
