<svg width="35" height="36" viewBox="0 0 35 36" fill="none" xmlns="http://www.w3.org/2000/svg">
<path fill-rule="evenodd" clip-rule="evenodd" d="M33.7046 7.18836C34.1682 4.92828 31.9483 3.05012 29.7962 3.88161L3.41615 14.0739C1.01284 15.0025 0.905759 18.3631 3.24506 19.4428L8.9899 22.0943L11.7228 31.6594C11.8648 32.1563 12.259 32.5409 12.7592 32.6705C13.2594 32.8001 13.7908 32.6554 14.1562 32.29L18.366 28.0802L24.2631 32.5029C25.9748 33.7867 28.4403 32.8517 28.8702 30.7557L33.7046 7.18836ZM4.46731 16.7946L30.8474 6.60227L26.0131 30.1696L19.1042 24.988C18.5236 24.5525 17.7112 24.6102 17.198 25.1234L15.395 26.9265L15.9367 23.947L26.5521 13.3316C27.0687 12.815 27.1233 11.9959 26.6798 11.4153C26.2363 10.8346 25.4317 10.6718 24.7973 11.0343L10.1372 19.4115L4.46731 16.7946ZM11.9247 21.7493L12.809 24.8444L13.1485 22.9771C13.2016 22.6852 13.3424 22.4165 13.5522 22.2068L16.7895 18.9695L11.9247 21.7493Z" fill="white" fill-opacity="0.7"/>
</svg>
