<svg width="35" height="36" viewBox="0 0 35 36" fill="none" xmlns="http://www.w3.org/2000/svg">
<path d="M18.9584 6.46712C18.1529 6.46712 17.5 7.12004 17.5 7.92546C17.5 8.73087 18.1529 9.38379 18.9584 9.38379C20.8145 9.38379 22.2479 9.99612 23.2136 10.9619C24.1794 11.9276 24.7917 13.361 24.7917 15.2171C24.7917 16.0225 25.4446 16.6755 26.25 16.6755C27.0554 16.6755 27.7084 16.0225 27.7084 15.2171C27.7084 12.6982 26.8624 10.4858 25.276 8.89947C23.6897 7.31312 21.4773 6.46712 18.9584 6.46712Z" fill="white" fill-opacity="0.7"/>
<path d="M7.31211 12.3094C7.47875 10.9915 9.19157 9.20025 10.5509 9.399L10.5487 9.39682C11.6849 9.61274 12.6178 11.3229 13.2325 12.4499C13.3335 12.635 13.426 12.8044 13.5093 12.9489C13.9277 13.6917 13.656 14.4443 13.2658 14.7619C13.2207 14.7983 13.1734 14.8358 13.1247 14.8745C12.6055 15.2866 11.9309 15.8222 12.0888 16.3596C12.3959 17.4046 16.0417 21.0505 17.8349 22.0869C18.3839 22.4042 18.8108 21.7879 19.1764 21.2602C19.2628 21.1355 19.3457 21.0158 19.426 20.9144C19.7314 20.5066 20.4846 20.263 21.2258 20.6654C22.3327 21.31 23.3754 22.0591 24.3396 22.9026C24.8211 23.305 24.9341 23.8999 24.6005 24.5285C24.0127 25.6358 22.313 27.0961 21.0791 26.7994C18.9239 26.2813 10.2084 22.9026 7.40884 13.1142C7.26225 12.6831 7.28651 12.5016 7.30756 12.3441L7.31211 12.3094Z" fill="white" fill-opacity="0.7"/>
<path d="M18.9584 10.8421C18.1529 10.8421 17.5 11.495 17.5 12.3005C17.5 13.1059 18.1529 13.7588 18.9584 13.7588C19.2132 13.7588 19.5902 13.9009 19.9324 14.2431C20.2746 14.5853 20.4167 14.9623 20.4167 15.2171C20.4167 16.0225 21.0696 16.6755 21.875 16.6755C22.6804 16.6755 23.3334 16.0225 23.3334 15.2171C23.3334 14.0137 22.7463 12.9323 21.9948 12.1807C21.2432 11.4292 20.1618 10.8421 18.9584 10.8421Z" fill="white" fill-opacity="0.7"/>
<path fill-rule="evenodd" clip-rule="evenodd" d="M10.9629 35.3876C11.0044 35.4105 11.047 35.4313 11.0905 35.4501C11.882 35.7904 12.859 35.0305 14.8129 33.5108L16.7709 31.988C20.6914 32.1177 24.083 31.6033 26.705 30.6858C29.6373 29.6597 31.9428 27.3542 32.9689 24.4219C34.3828 20.381 34.3828 12.9696 32.9689 8.92871C31.9428 5.9964 29.6373 3.69089 26.705 2.66483C22.0359 1.03105 12.8771 1.06153 8.29511 2.66483C5.3628 3.69089 3.0573 5.9964 2.03124 8.92871C0.617273 12.9696 0.617273 20.381 2.03124 24.4219C3.0573 27.3542 5.3628 29.6597 8.29511 30.6858C8.87036 30.8871 9.51376 31.1079 10.2084 31.2588C10.2084 33.7342 10.2084 34.9719 10.9629 35.3876ZM13.125 31.1286V29.4956C13.125 29.1525 12.8859 28.8561 12.5504 28.7843C11.4393 28.5468 10.3349 28.3095 9.25843 27.9328C7.16392 27.1999 5.51713 25.5531 4.78423 23.4586C4.22732 21.867 3.88743 19.3665 3.88743 16.6753C3.88743 13.9841 4.22732 11.4836 4.78423 9.89202C5.51713 7.79751 7.16392 6.15072 9.25843 5.41782C11.1071 4.77096 14.1708 4.37124 17.4706 4.36759C20.7698 4.36394 23.8527 4.75684 25.7417 5.41782C27.8362 6.15072 29.483 7.79751 30.2159 9.89202C30.7728 11.4836 31.1127 13.9841 31.1127 16.6753C31.1127 19.3665 30.7728 21.867 30.2159 23.4586C29.483 25.5531 27.8362 27.1999 25.7417 27.9328C22.6329 29.0206 19.336 29.1428 16.0765 29.0463C15.9062 29.0412 15.7393 29.0953 15.6048 29.1999L13.125 31.1286Z" fill="white" fill-opacity="0.7"/>
</svg>
